<svg version="1.2" xmlns="http://www.w3.org/2000/svg" viewBox="0 0 500 500" width="500" height="500">
	<title>logo-svg</title>
	<style>
		.s0 { fill: #000000 } 
	</style>
	<filter id="f0">
		<feFlood flood-color="#ffffff" flood-opacity="1" />
		<feBlend mode="normal" in2="SourceGraphic"/>
		<feComposite in2="SourceAlpha" operator="in" />
	</filter>
	<g id="Layer" filter="url(#f0)">
		<path id="Layer" fill-rule="evenodd" class="s0" d="m327.2 141.2c9.8 7.2 21 19.7 27.4 30.3 6.5 11 9.5 17.9 12.5 29.2l2.2 8.1 9.1 2.2c5 1.2 11.8 3.1 15.1 4.3 7 2.6 6.6 0.7 4.1 21.7-2.9 24-4.6 34.8-6.7 40.7-2.8 8.3-4.1 9.3-11.4 9.3h-6.1l-2.2 6.8c-7.9 24.6-16.1 38.3-32.6 54.7-30.5 30.4-68 43-109.6 37.1-21.4-3-47.8-15.5-63.1-29.8-6-5.6-21.3-23.8-20-23.8 0.6 0 4.6 4.2 9 9.2 8.5 9.9 20.5 20.6 27.4 24.6 15.9 9.2 29.5 14.7 43.9 17.8 10.2 2.2 32.7 2.2 44.2 0 28-5.4 59.9-24.8 76.6-46.7 9.9-13 14.7-21.4 20.1-36.1 5.4-14.4 8.6-20.3 11.9-21.3 4.8-1.5 8.3-17.4 9.6-43.3l0.7-12.9-8.2-2.2c-4.4-1.2-11.5-2.6-15.6-3-5.6-0.7-7.9-1.4-9.3-2.9-1.1-1.4-5.2-2.8-12.8-4.6-6.1-1.4-11.8-2.6-12.7-2.6-1.6 0-16.9-5.9-15.3-6 0.4 0 3.5 0.7 6.8 1.6 8 2 10 1.2 2.3-1-5.9-1.7-6.1-1.9-9.5-8.4-4.8-9.1-4.8-9.7-0.2-2.7 3.8 5.6 8.7 10.3 9.8 9.2 0.7-0.7-3.2-7.1-11.3-18.4-4-5.6-7.6-10.9-7.9-11.7-0.5-1.4-2.3 0-18.5 15.5-3.3 3.1-5.9 6.1-5.9 6.6 0 1.1 8.1 4.3 10.7 4.3 0.7 0 2-1.5 2.9-3.3 0.9-1.7 3.5-6.1 5.8-9.6 3.2-4.9 4.2-5.9 4.4-4.3 0.2 1.1-0.4 3.5-1.3 5.2-1.5 2.8-1.4 3.5 0.3 9.4l2 6.4-3.7-0.5c-3-0.4-14.1-2.6-25.2-4.9-2.1-0.5-3.8 0.4-8.7 4.5-3.4 2.9-6.2 5.6-6.2 6 0 0.5-1.1 1.2-2.4 1.5-1.3 0.3-3.1 0.8-3.9 1.1-1.1 0.5-1.6-2.1-2.6-14.7-0.7-8.4-1.5-16.7-1.8-18.3-1.2-6.8 1.6-0.5 4.1 9.2 3.5 13.5 5.1 17.9 6 16.5 1.8-3-4.8-33.4-8.4-38.2l-1.8-2.4-3.9 2.7c-2.1 1.4-6.5 4.9-9.8 7.7-3.2 2.7-6.7 5.3-7.7 5.6-2.7 0.8-2.2 2.6 2.5 9 4.6 6.2 14.2 23.2 13.5 23.9-0.2 0.2-7.1-0.7-15.3-2.1-8.3-1.4-17.2-2.3-20-2.1-30.7 2.5-45.7 4.7-54.5 7.7-3 1.1-11.3 2.9-18.5 4-13 2.1-27.2 5.6-28.9 7.1-0.6 0.6-0.5 7.1 0.3 17.1 1.1 15.9 3.9 30.5 6.7 36 1.4 2.7 5.4 5.7 5.4 4.1 0.1-1.1 4 3.7 4 4.8 0 0.5-3.1 0.9-6.9 0.9-6.7 0-7-0.1-8.9-3.3-2.7-4.3-5.7-15.4-7.2-26.3q-5.1-38.7-4.2-39.6c0.6-0.6 21.5-6.5 29.2-8.2 2.2-0.5 2.9-1.9 5.9-11.1 1.9-5.9 4.5-12.9 5.8-15.7 3.3-7.1 12.2-20.4 17.7-26.6 6.3-6.8 19.8-17.6 25.5-20.3 2.5-1.1 6-3.2 7.7-4.5 6.8-5 27.9-12.2 42.3-14.3 30.8-4.6 70.1 5.3 95.3 24.1zm-135.3-9.2c-18.2 9-32.2 21.1-42.9 37.1-7.9 11.8-10.3 16.8-14 28.1-3.6 10.9-3.5 10.8-1 10.8 1.4 0 2.2-1.1 3.1-4.3 1.8-7 10.2-23.7 16.2-32.3 16.5-23.8 41.6-39.9 72.9-46.5 12.6-2.7 35.5-3 45.3-0.5 3.3 0.9 4.4 1.3 2.5 1-1.9-0.2-10.3-0.7-18.7-1.1-24.2-0.9-37.6 2-60.8 13.2-11.3 5.4-25.2 16.1-32.8 25.1-9.6 11.3-21.4 32.8-23.4 42.4-0.5 2.9-0.4 3.2 1.1 2.7 1-0.4 2.1-0.7 2.5-0.7 0.5 0 1.6-1.9 2.5-4.3 0.9-2.3 2.6-5.3 3.7-6.7 1.9-2.3 1.9-2.3 0.9-0.2-0.6 1.2-0.8 2.7-0.5 3.2 0.3 0.5 0.1 1.1-0.5 1.5-0.5 0.3-1 1.5-1 2.5 0 1-0.6 2.1-1.2 2.3-0.7 0.3 0.3 0.4 2.2 0.2 1.9-0.1 4.5-0.3 5.8-0.4 1.3 0 2.1-0.5 1.7-1-0.3-0.5-0.1-1.2 0.5-1.6 0.5-0.3 1-0.1 1 0.4 0 1.6 3 1.3 10.1-0.9 6.3-1.9 18.8-10.4 29.5-19.9 5.8-5.1 15.5-12.6 18.2-14 2-1.1 2.7-0.7 7 3.8l4.7 5.1 7.5-6c8.3-6.7 16-12 17.2-12 0.5 0 4.1 3.2 8.1 7.1 9.6 9.5 19.8 17.6 22 17.6 0.9 0 1.7-0.3 1.7-0.6 0-0.4 1.6-1.5 3.5-2.5 1.9-1 3.2-2.3 2.8-2.9-0.3-0.6-0.1-0.7 0.4-0.4 1.1 0.7 4.8-1.8 9.3-6.2 1.5-1.5 1.7-1.9 0.5-1.1-1.7 1.2-1.8 1.2-0.7 0 0.7-0.8 1.6-1.5 2-1.5 3.7-0.3 5.8-2.2 5.3-4.8-0.1-0.5 0.3-0.6 0.8-0.3 1.5 1 2.4-1.3 1.1-2.9-4.1-4.9-25-14.2-38-16.9-22.6-4.6-40.3-2.5-59.6 6.9-6.1 3-13.9 7.7-17.5 10.3-10.8 8.3-28.8 28.2-33.3 36.9-0.9 1.8-1.9 3.3-2.1 3.3-1.5 0 0.1-3.4 5-10.3 3-4.2 5.2-7.7 4.9-7.7-0.3 0 3.9-4.4 9.3-9.8 13.6-13.4 26.5-22.1 43.3-28.7 5.6-2.2 5.9-2.5 2.5-2-2.2 0.4-6.9 1.8-10.5 3.3-6 2.3-14 4.4-14 3.6 0-0.9 10.2-5.3 17.5-7.7 11.5-3.8 18.8-4.7 33.2-4 10.2 0.4 12.6 0.3 11.6-0.7-1.3-1.4-8-2.9-13.8-3-2.2 0-4.7-0.5-5.5-1.1-1.1-0.7 3.1-0.9 14-0.6 32.6 0.9 51.3 8.8 72.1 30.2 5.2 5.4 15.9 18.9 15.9 20 0 0.3 2.5 4.9 5.5 10.2 3 5.4 5.5 10.5 5.5 11.4 0 0.9 0.7 2 1.6 2.3 2.2 0.8 6.4 0.8 6.4-0.2 0-1.3-6.7-18.7-8.9-23-4.3-8.4-11.6-18.9-18-25.7-3.6-3.9-4.8-5.4-2.7-3.5 12.4 11.1 23.7 29.2 29.7 47.4 1.3 4.1 2.7 6.6 3.6 6.6 1.8 0 1.2-3-2.4-14-2.9-8.9-8.6-19.7-16-30.2-15.1-21.6-46.2-39.1-78.3-44.3-26.1-4.1-52 0-77.1 12.5zm36.5 9.1c-1.1 0-1.4 0.3-0.6 0.6 0.7 0.3 1.6 0.2 1.9-0.1 0.4-0.3-0.2-0.6-1.3-0.5zm-7.8 41.4c5.9 12.4 10.5 19.9 11.4 18.5 1.2-2-7.6-21.8-11.7-26.4-6.5-7.2-6.4-6.2 0.3 7.9zm88.8-12.5c-0.8 0-0.3 0.8 1.4 2.1 1.5 1.3 1.6 1.2 0.3-0.4-0.7-0.9-1.5-1.7-1.7-1.7zm-96.2 3c-1.9 0-33.6 27.6-36.1 31.4-1.2 1.8-1.1 1.9 4 1.3 3-0.4 11.7-1.2 19.4-1.8 7.7-0.6 14.2-1.3 14.5-1.6 1.1-1 1.2-21.8 0.1-25.4-0.7-2.2-1.5-3.9-1.9-3.9zm48.1 7c4.2 13.6 6.1 17.1 8.7 15.5 0.7-0.4 0-2.6-2-6.3-3.1-5.8-7.6-11.9-6.7-9.2z"/>
		<path id="Layer" class="s0" d="m280 127c3.4 1.1 6 1.1 3.5 0-1.1-0.5-2.9-0.8-4-0.8-1.6 0-1.5 0.2 0.5 0.8z"/>
		<path id="Layer" class="s0" d="m289 129.5c4.6 1.8 6.4 1.7 2.5 0-1.6-0.8-3.7-1.4-4.5-1.4-0.8 0 0.1 0.7 2 1.4z"/>
		<path id="Layer" class="s0" d="m300 133.4c0 0.2 0.7 0.7 1.6 1 0.8 0.3 1.2 0.2 0.9-0.4-0.6-1-2.5-1.4-2.5-0.6z"/>
		<path id="Layer" class="s0" d="m325.5 149c1 1.1 2 2 2.3 2 0.3 0-0.3-0.9-1.3-2-1-1.1-2-2-2.3-2-0.3 0 0.3 0.9 1.3 2z"/>
		<path id="Layer" class="s0" d="m277.2 197.7c0.9 1 2.3 3.2 3.2 5l1.6 3.2-3.3-1.1c-1.7-0.6-3.8-1.5-4.4-2.1-0.9-0.6-1.8-0.6-2.6 0.2-0.8 0.6-3.1 1.5-5.3 2-3.8 0.9-3.8 0.9 2.1 0.9 3.3 0.1 7.6 0.6 9.5 1.1 4.4 1.4 13.6 1.4 10.4 0.1-1.2-0.5-3.9-2.9-6-5.4-2.1-2.5-4.4-4.8-5.3-5.1-1.3-0.5-1.3-0.3 0.1 1.2z"/>
		<path id="Layer" class="s0" d="m310.8 201.7c0.7 0.3 1.6 0.2 1.9-0.1 0.4-0.3-0.2-0.6-1.3-0.5-1.1 0-1.4 0.3-0.6 0.6z"/>
		<path id="Layer" class="s0" d="m213.5 214c-20.5 0.4-11 0.6 39.5 1 36.6 0.3 66.7 0.4 66.9 0.2 0.2-0.1 0.2-0.4 0-0.7-0.7-0.7-76.4-1.1-106.4-0.5z"/>
		<path id="Layer" class="s0" d="m214 241v19h3 3v-6.4c0-4.5 0.5-6.7 1.5-7.6 1.9-1.6 1.6-1.9 5 5.8 1.6 3.5 3.6 6.7 4.6 7.2 2.2 1.3 5.9 1.3 5.9 0.1 0-0.5-2.3-5.7-5-11.6l-5-10.8 4-6.4c2.2-3.5 4-6.6 4-6.9 0-0.2-1.3-0.4-2.9-0.4-2.5 0-3.5 1-7.3 6.7l-4.3 6.8-0.3-7.3-0.3-7.2h-2.9-3z"/>
		<path id="Layer" class="s0" d="m245 241v19h3 3v-8c0-7.9 0-8 2.5-8 2.3 0 2.5 0.3 2.5 4.9 0 8.1 0.9 11.1 3.5 11.1 2.1 0 2.2-0.4 2.9-14.8 0.4-8.2 0.4-16.7 0-19-0.6-3.6-1-4.2-3-4.2-2.2 0-2.4 0.4-2.6 5.7 0 3.2-0.2 6.2-0.3 6.8-0.2 0.5-0.3 1.8-0.4 2.7-0.1 1.2-0.9 1.8-2.6 1.8-2.5 0-2.5-0.1-2.5-8.5v-8.5h-3-3z"/>
		<path id="Layer" class="s0" d="m276.4 223.3c-0.2 0.7-0.3 9.1-0.2 18.7l0.3 17.5 2.7 0.3 2.7 0.3 0.3-8.3c0.3-8.1 0.4-8.3 2.8-8.3 2.4 0 2.5 0.2 2.8 8.2 0.3 8.1 0.3 8.3 2.7 8.3 2.4 0 2.5-0.3 2.5-6.3 0-3.4 0.3-11.9 0.7-19l0.6-12.7h-3.1-3.1l-0.3 7.7c-0.3 7.6-0.4 7.8-2.8 7.8-2.4 0-2.5-0.2-2.8-7.8-0.3-7.5-0.4-7.7-2.8-7.7-1.3 0-2.7 0.6-3 1.3z"/>
		<path id="Layer" class="s0" d="m295.2 241l-0.2 19h3.5 3.5v-19-19h-3.2-3.3z"/>
		<path id="Layer" class="s0" d="m308 237.3c0 14.4 0.2 15.6 2.3 18.8 3.8 5.7 10.3 6.4 14.7 1.7 1.8-2 2-3.5 2-18.5v-16.3h-2.5-2.4l-0.3 15.2-0.3 15.3h-2.5-2.5l-0.5-15.5-0.5-15.5-3.7-0.3-3.8-0.3z"/>
		<path id="Layer" class="s0" d="m169 242.6v19.5l3.3-0.3 3.2-0.3 0.3-19.3 0.2-19.2h-3.5-3.5z"/>
		<path id="Layer" class="s0" d="m188.9 225.9c-2.9 2.9-2.9 3-2.9 15.6 0 12 0.1 12.7 2.5 15 3.5 3.6 8.5 3.4 12.4-0.6 2.1-2 3.1-4 3.1-6 0-2.7-0.3-3-2.7-2.7-2 0.2-2.9 0.9-3.1 2.6-0.4 2.8-2.7 3.9-4.7 2.2-1.1-0.9-1.5-3.6-1.5-10.9 0-5.3 0.4-10.2 0.9-10.9 1.3-2.1 4.6-1 4.9 1.6 0.3 1.9 0.9 2.3 3.5 2 2.7-0.3 3.2-0.7 2.9-2.8-0.1-1.4-1.6-3.7-3.2-5.3-4.1-3.7-8.3-3.6-12.1 0.2z"/>
		<path id="Layer" class="s0" d="m144 244.1v20.1l6.8-0.7c10.6-1 12.4-1.5 11.8-3.2-0.3-0.8-0.6-2.1-0.6-3 0-1.2-0.9-1.4-5-0.8l-5 0.7v-16.6-16.6h-4-4z"/>
		<path id="Layer" class="s0" d="m334.8 242.7c-0.3 10.4-0.3 19-0.1 19.2 0.1 0.2 3.8 0.6 8.2 0.9 7.5 0.4 7.8 0.3 8.4-1.9 0.9-3.3 0.1-3.9-5.4-3.9h-4.9v-16.5-16.5h-2.9-2.9z"/>
		<path id="Layer" class="s0" d="m123.7 227.1c-3.8 2.2-4.7 6.2-4.7 20.2 0 11.9 0.2 13.7 2 16 2.7 3.4 6.3 4.1 10.5 2.2 3.3-1.6 7.2-7.6 6.1-9.4-1-1.5-5.8 0.1-6.4 2.1-0.3 1.3-1.2 1.8-2.6 1.6-2-0.3-2.1-0.9-2.4-13.5-0.2-12.6-0.2-13.2 1.8-13.8 2.6-0.8 2.8-0.6 3.3 2.6 0.3 1.8 1 2.4 2.8 2.4 2 0 2.4-0.5 2.7-3.7 0.4-4.9-2.4-7.8-7.5-7.8-2.1 0-4.6 0.5-5.6 1.1z"/>
		<path id="Layer" fill-rule="evenodd" class="s0" d="m357 226h4.7c6.8 0 11.9 1.7 14.3 4.7 2.6 3.4 2.5 5.6-0.4 9l-2.5 2.8 2.6 2.7c3.7 3.9 4.3 11.3 1.3 15.1-2.1 2.7-2.4 2.8-10.9 2.5l-8.6-0.3-0.3-18.3zm9.3 7.2c-2-0.3-2.3 0.1-2.3 3.2 0 3.2 0.3 3.6 2.6 3.6 2.3 0 2.5-0.3 2.2-3.3-0.2-2.4-0.8-3.3-2.5-3.5zm0.6 14.8c-3 0-3 0.1-2.7 4.7 0.3 4.4 0.5 4.8 3 5.1 3.1 0.4 4.3-2.1 3.3-6.8-0.6-2.5-1.1-3-3.6-3z"/>
		<path id="Layer" class="s0" d="m208.5 268.9c-5.4 0.4 10.2 0.9 38.5 1.1 26.1 0.3 47.7 0.4 47.9 0.2 0.2-0.1 0.1-0.5-0.2-0.9-1-0.9-74.7-1.2-86.2-0.4z"/>
		<path id="Layer" fill-rule="evenodd" class="s0" d="m228.4 291.6l20.2 10.2 6.4-3.4c3.6-1.9 17-8.6 29.7-15l23.3-11.6 15.2 1.1c14.6 1.1 42 4 42.5 4.5 0.5 0.4-2.7 16-4.7 23.4-1.8 6.7-6.4 17.2-7.5 17.2-0.2 0 0.9-2.8 2.6-6.3 2.9-6.3 7.2-23.4 6.3-24.9-0.3-0.4-1.8-0.8-3.4-0.8-2.9 0-7 3.9-7 6.6 0 0.7-0.9 1.8-2 2.4-1.1 0.6-2.5 2-3.1 3.1-0.8 1.5-0.8 1.9 0 1.5 0.6-0.4 1.1 0 1.1 0.9 0 0.9-0.4 1.4-0.9 1-0.6-0.3-0.9 0.3-0.9 1.2 0.3 5.4-11 22.1-23.2 34.4-21 21.1-44.5 30.4-77 30.3-24.1-0.1-37.3-4.1-57-17.5-10.9-7.5-15.7-11.8-23.1-20.9-2.9-3.6-5.6-6.7-5.9-7-0.3-0.3-1.8-2.7-3.3-5.4-2.1-3.8-2.5-5.1-1.5-5.8 1-0.6 1-0.8 0-0.8-0.7 0-1-0.5-0.7-1.1 0.6-0.8 7.5 9 7.5 10.6 0 1 6.2 9.3 8.8 11.8 2.2 2.1 3.2 2.5 3.7 1.6 0.6-0.8 0.4-1-0.6-0.4-0.8 0.5-1.1 0.4-0.6 0 0.4-0.5-0.1-1.8-1-3-1-1.2 0.6 0.4 3.6 3.4 2.9 3.1 5.7 5.5 6.2 5.3 0.5-0.1 0.9 0.2 0.9 0.8 0 0.8 4.3 3.7 17.8 11.7 2 1.3 4.2 2.3 4.7 2.2 0.6 0-0.8-0.9-3-2.1-7.6-3.9-19.2-14.9-26.9-25.3-9.4-12.7-18.7-27.6-18.3-29.3q0.3-1.6 2.7 3c1.3 2.7 2.8 4.8 3.2 4.8 0.4 0 0.8 0.5 0.8 1.1 0 3.2 16.9 25.8 24.3 32.5 9.2 8.4 29.3 18.8 38.7 20 1.4 0.2 3.4 0.5 4.5 0.7 1.1 0.2 1.4 0.2 0.7 0-0.7-0.3-1-0.8-0.7-1.2 0.2-0.5-0.4-1.6-1.5-2.6-2.1-1.9-2.8-8.9-1-10 0.6-0.4 1 0.7 1 2.5 0 2 0.6 3.3 1.8 3.7 0.9 0.4 2.8 1.5 4.1 2.5 1.9 1.4 4.2 1.8 11.7 1.8 5.3 0 9.6-0.4 9.9-1 0.4-0.6 1.2-0.9 1.8-0.8 1.6 0.3 12.8-4.9 12.6-5.9-0.4-2.2 0.3-2.5 1.7-0.7 0.8 1 1.3 1.4 1 0.8-0.5-1.1 9.3-6.4 12-6.4 2.4 0 1.3 4.3-1.3 5-1.3 0.3-3.3 1.4-4.5 2.5-1.3 1-2.5 1.9-2.8 1.8-0.3 0-1.1 0.2-1.9 0.5-0.7 0.3-1.6-0.1-2.1-0.7-0.5-1-0.8-0.9-1.3 0.1-0.6 1.6-12.2 7.9-17.9 9.8-4.7 1.4-4.9 2.6-0.5 2.7 3.3 0.1 14.3-3.2 16.5-4.9 0.6-0.6 1.2-0.8 1.2-0.5 0 1.6 8.6-2.3 20.8-9.5 15.8-9.3 24.7-17.3 35.1-31.3 10.3-13.9 16.1-24.3 16.1-29 0-2-0.7-2.5-5-3.4-11.3-2.4-14.3-1.3-35.5 12.9-6.3 4.2-6.6 4.3-5.8 2.4 0.4-1.2 0.3-1.5-0.5-1-0.7 0.4-1.2 0.2-1.2-0.3 0-0.6 0.4-1.1 0.8-1.1 0.5 0 1.7-0.7 2.8-1.5 1.5-1.2 1.1-1.2-1.8 0.1-2 1-3.4 2.2-3.1 2.7 0.3 0.6 0.1 0.7-0.4 0.4-1.3-0.8-8.7 3.3-23.8 13.1-15.4 10.1-20.7 13.2-22.7 13.2-0.9 0-7.9-4.3-15.6-9.5-21.1-14.2-41.1-25.6-52.7-30-6.3-2.4-7.8-2.6-15-2-8.8 0.8-11.9 1.9-11.1 4 0.3 0.8 0.1 1.7-0.4 2-1.6 1-1.1 3.7 1.5 9.4 1.4 3 2.3 5.6 2.1 5.8-0.3 0.3-2.5-3.8-5-9.1-2.5-5.3-5.1-9.6-5.6-9.6-1.5 0-1.2 2.6 0.4 3.9 0.8 0.7 2.1 3.2 3 5.6l1.5 4.5-2.5-1.6c-1.3-0.9-3.2-3.8-4.1-6.6-1.8-4.9-1.9-4.9-5.6-4.6-3.6 0.3-3.7 0.3-5-4.2-0.8-2.5-1.1-4.8-0.8-5.1 0.6-0.7 21.5-3.3 37.6-4.8 18.6-1.7 16.1-2.5 57.9 18.5zm121.7-4.6c-0.5 0-1.4 1.4-2.1 3.1-0.8 1.8-1.6 2.6-2 1.9-0.4-0.7-1.4 0.4-2.5 2.7-3.6 7.6-13.5 23.3-19.6 31-5.8 7.3-16.6 18.2-18.1 18.3-1 0-6.3 5-5.4 5 0.4 0 2.9-1.5 5.4-3.2 12.2-8.5 25.3-23.6 32.8-37.8 1.6-3 3.2-5.7 3.5-6 0.3-0.3 1.2-2.2 1.9-4.4 0.7-2.1 1.5-3.4 1.9-2.7 0.4 0.6 1.6-0.8 2.9-3.4 1.2-2.5 1.8-4.5 1.3-4.5z"/>
		<path id="Layer" class="s0" d="m239.7 280.4c0.3 1.3-0.3 2.9-1.6 4-2.8 2.5-2.6 3.6 0.4 3.6 1.4 0 2.5-0.5 2.5-1 0-0.6-0.5-1-1.1-1-0.5 0-0.3-1 0.5-2.2 2-2.8 2-4.4 0.3-5.1-1-0.4-1.3 0.1-1 1.7z"/>
		<path id="Layer" class="s0" d="m246.2 282.2c-0.7 2.1-1 4.3-0.7 4.9 0.8 1.3 3.2 1.1 4.1-0.3q0.8-1-0.6-0.3c-1 0.6-1.2 0.2-0.8-1.6 0.3-1.3 0.9-3.1 1.2-4 0.4-1 0.2-1.8-0.6-2.2-0.9-0.3-1.8 0.9-2.6 3.5z"/>
		<path id="Layer" class="s0" d="m257.2 283c-0.3 5.8 1.3 6.7 2.2 1.2 0.8-5.3 0.8-6.2-0.6-6.2-0.8 0-1.4 1.8-1.6 5z"/>
		<path id="Layer" class="s0" d="m183 289.9c0 1.4 4.9 4.3 6.1 3.6 0.5-0.4 2.6 0.3 4.5 1.4 1.9 1.2 3.3 1.7 3 1.2-1.1-1.7-9.6-6.2-10.6-5.6-0.6 0.3-1 0.1-1-0.4 0-0.6-0.4-1.1-1-1.1-0.5 0-1 0.4-1 0.9z"/>
		<path id="Layer" class="s0" d="m180.3 315.6c-1.6 2.6-1.6 2.7 0.6 4.5 3 2.5 6.6 2.4 9.1-0.1 1.6-1.6 1.8-2.5 1.1-3.9-2.2-4-8.3-4.2-10.8-0.5z"/>
		<path id="Layer" class="s0" d="m305.3 314.7c-2.5 1.7-3 4.2-1.1 6.1 1.9 1.9 5.4 1.4 8.4-1.1l2.7-2.4-2.1-2.1c-2.6-2.6-4.8-2.7-7.9-0.5z"/>
		<path id="Layer" class="s0" d="m350.5 321.6c-0.9 1.5-1.2 2.3-0.6 2 1.1-0.7 3.5-4.6 2.8-4.6-0.3 0-1.2 1.2-2.2 2.6z"/>
		<path id="Layer" class="s0" d="m150 327.9c2.4 3.4 4.8 6.5 5.4 6.8 0.5 0.4-1-2.2-3.4-5.6-2.4-3.4-4.8-6.5-5.4-6.8-0.5-0.4 1 2.2 3.4 5.6z"/>
		<path id="Layer" class="s0" d="m141.7 326.7c2.2 4.7 2.2 4.8 2.8 4.1 0.6-0.5-3.3-7.8-4.1-7.8-0.2 0 0.4 1.7 1.3 3.7z"/>
		<path id="Layer" class="s0" d="m167.6 324.5c0.4 0.8 1.1 1.5 1.6 1.5 0.6 0 0.5-0.6-0.2-1.5-0.7-0.8-1.4-1.5-1.6-1.5-0.2 0-0.1 0.7 0.2 1.5z"/>
		<path id="Layer" class="s0" d="m193.5 329c-4.1 4.5 2.7 8 7.8 4 2.9-2.3 3.5-4.6 1.5-4.8-0.7-0.1-2.7-0.4-4.3-0.8-2.3-0.4-3.5-0.1-5 1.6z"/>
		<path id="Layer" class="s0" d="m293.3 329.1c-3.7 2.4-4 3.1-1.7 5.3 1.9 2 2.7 2 6.7-0.1 4.7-2.4 6-4.5 4-6.1-2.4-1.7-5.3-1.5-9 0.9z"/>
		<path id="Layer" class="s0" d="m345.3 329.2c-1.5 2-2.5 3.8-2 3.8 0.3 0 1.2-1.1 2.1-2.5 1.7-2.6 1.6-3.5-0.1-1.3z"/>
		<path id="Layer" class="s0" d="m339.4 337.2l-2.9 3.3 3.3-2.9c1.7-1.7 3.2-3.1 3.2-3.3 0-0.8-0.8-0.1-3.6 2.9z"/>
		<path id="Layer" class="s0" d="m158.5 339c3.6 4.2 18 17.4 21.5 19.6 1.4 0.9 0.5-0.1-2-2.2-2.5-2.1-8.5-7.7-13.5-12.4-4.9-4.7-7.6-6.9-6-5z"/>
		<path id="Layer" class="s0" d="m210.7 340c-0.4 1.6 0.2 2.4 2.6 3.6 1.8 0.9 4.1 2.5 5.3 3.5 1.1 1.1 3.6 2.4 5.4 2.9 3.1 0.9 3.2 0.8 1.6-0.9-0.9-1-1.3-2.1-0.9-2.6 0.5-0.4 0.2-0.5-0.5-0.1-1.3 0.7-5.7-1.9-10.3-6.1-2.6-2.4-2.6-2.4-3.2-0.3z"/>
		<path id="Layer" class="s0" d="m246.7 345.6c-2 1.1-2.7 2.2-2.5 3.7 0.3 1.9 0.9 2.2 5.6 2.2 5.1 0.1 5.2 0 5.2-2.7 0-2.1-0.6-3.1-2.6-3.8-3-1.2-2.3-1.3-5.7 0.6z"/>
		<path id="Layer" class="s0" d="m329.4 347.2l-2.9 3.3 3.3-2.9c3-2.8 3.7-3.6 2.9-3.6-0.2 0-1.6 1.5-3.3 3.2z"/>
		<path id="Layer" class="s0" d="m320.8 354.3c-2 1.8-6.4 4.8-9.7 6.7-8.1 4.6-10.8 6.7-5.1 3.9 5.7-2.8 14.9-9 17.4-11.8 2.7-3 1.7-2.5-2.6 1.2z"/>
		<path id="Layer" class="s0" d="m186.7 363.1c0.7 0.7 1.5 1 1.8 0.7 0.3-0.3-0.2-0.9-1.2-1.2-1.4-0.6-1.5-0.5-0.6 0.5z"/>
		<path id="Layer" class="s0" d="m192 366c0.8 0.5 2 1 2.5 1 0.6 0 0.3-0.5-0.5-1-0.8-0.5-1.9-1-2.5-1-0.5 0-0.3 0.5 0.5 1z"/>
		<path id="Layer" class="s0" d="m293.5 370.1c-10.5 4.5-11.5 5-8.5 4.3 4.7-1.1 18.5-7.5 16-7.4-0.3 0-3.6 1.4-7.5 3.1z"/>
		<path id="Layer" class="s0" d="m201 370.3c9.8 5.7 32 10.7 47.7 10.7 8.8 0 25.9-2.7 31.3-4.9 3.9-1.5 1.9-1.3-7.2 0.9-19.1 4.7-42.4 3.4-61.3-3.5-13.1-4.7-13.3-4.8-10.5-3.2z"/>
	</g>
</svg>