<?xml version="1.0" standalone="no"?>
<!DOCTYPE svg PUBLIC "-//W3C//DTD SVG 20010904//EN"
 "http://www.w3.org/TR/2001/REC-SVG-20010904/DTD/svg10.dtd">
<svg version="1.0" xmlns="http://www.w3.org/2000/svg"
 width="500.000000pt" height="500.000000pt" viewBox="0 0 500.000000 500.000000"
 preserveAspectRatio="xMidYMid meet">

<g transform="translate(0.000000,500.000000) scale(0.100000,-0.100000)"
fill="#000000" stroke="none">
<path d="M2319 3829 c-144 -21 -355 -93 -423 -143 -17 -13 -52 -34 -77 -45
-57 -27 -192 -135 -255 -203 -55 -62 -144 -195 -177 -266 -13 -28 -39 -98 -58
-157 -30 -92 -37 -106 -59 -111 -77 -17 -286 -76 -292 -82 -6 -6 8 -138 42
-396 15 -109 45 -220 72 -263 19 -32 22 -33 89 -33 38 0 69 4 69 9 0 11 -39
59 -40 48 0 -16 -40 14 -54 41 -28 55 -56 201 -67 360 -8 100 -9 165 -3 171
17 15 159 50 289 71 72 11 155 29 185 40 88 30 238 52 545 77 28 2 117 -7 200
-21 82 -14 151 -23 153 -21 7 7 -89 177 -135 239 -47 64 -52 82 -25 90 10 3
45 29 77 56 33 28 77 63 98 77 l39 27 18 -24 c36 -48 102 -352 84 -382 -9 -14
-25 30 -60 165 -25 97 -53 160 -41 92 3 -16 11 -99 18 -183 10 -126 15 -152
26 -147 8 3 26 8 39 11 13 3 24 10 24 15 0 4 28 31 62 60 49 41 66 50 87 45
111 -23 222 -45 252 -49 l37 -5 -20 64 c-17 59 -18 66 -3 94 9 17 15 41 13 52
-2 16 -12 6 -44 -43 -23 -35 -49 -79 -58 -96 -9 -18 -22 -33 -29 -33 -26 0
-107 32 -107 43 0 5 26 35 59 66 162 155 180 169 185 155 3 -8 39 -61 79 -117
81 -113 120 -177 113 -184 -11 -11 -60 36 -98 92 -46 70 -46 64 2 -27 34 -65
36 -67 95 -84 77 -22 57 -30 -23 -10 -33 9 -64 16 -68 16 -16 -1 137 -60 153
-60 9 0 66 -12 127 -26 76 -18 117 -32 128 -46 14 -15 37 -22 93 -29 41 -4
112 -18 156 -30 l82 -22 -7 -129 c-13 -259 -48 -418 -96 -433 -33 -10 -65 -69
-119 -213 -54 -147 -102 -231 -201 -361 -167 -219 -486 -413 -766 -467 -115
-22 -340 -22 -442 0 -144 31 -280 86 -439 178 -69 40 -189 147 -274 246 -44
50 -84 92 -90 92 -13 0 140 -182 200 -238 153 -143 417 -268 631 -298 416 -59
791 67 1096 371 165 164 247 301 326 547 l22 68 61 0 c73 0 86 10 114 93 21
59 38 167 67 407 25 210 29 191 -41 217 -33 12 -101 31 -151 43 l-91 22 -22
81 c-30 113 -60 182 -125 292 -64 106 -176 231 -274 303 -252 188 -645 287
-953 241z m371 -24 c321 -52 632 -227 783 -443 74 -105 131 -213 160 -302 36
-110 42 -140 24 -140 -9 0 -23 25 -36 66 -60 182 -173 363 -297 474 -21 19 -9
4 27 -35 64 -68 137 -173 180 -257 22 -43 89 -217 89 -230 0 -10 -42 -10 -64
-2 -9 3 -16 14 -16 23 0 9 -25 60 -55 114 -30 53 -55 99 -55 102 0 11 -107
146 -159 200 -208 214 -395 293 -721 302 -109 3 -151 1 -140 -6 8 -6 33 -11
55 -11 58 -1 125 -16 138 -30 10 -10 -14 -11 -116 -7 -144 7 -217 -2 -332 -40
-73 -24 -175 -68 -175 -77 0 -8 80 13 140 36 36 15 83 29 105 33 34 5 31 2
-25 -20 -168 -66 -297 -153 -433 -287 -54 -54 -96 -98 -93 -98 3 0 -19 -35
-49 -77 -49 -69 -65 -103 -50 -103 2 0 12 15 21 33 45 87 225 286 333 369 36
26 114 73 175 103 193 94 370 115 596 69 130 -27 339 -120 380 -169 13 -16 4
-39 -11 -29 -5 3 -9 2 -8 -3 5 -26 -16 -45 -53 -48 -4 0 -13 -7 -20 -15 -11
-12 -10 -12 7 0 12 8 10 4 -5 -11 -45 -44 -82 -69 -93 -62 -5 3 -7 2 -4 -4 4
-6 -9 -19 -28 -29 -19 -10 -35 -21 -35 -25 0 -3 -8 -6 -17 -6 -22 0 -124 81
-220 176 -40 39 -76 71 -81 71 -12 0 -89 -53 -172 -120 l-75 -60 -47 51 c-43
45 -50 49 -70 38 -27 -14 -124 -89 -182 -140 -107 -95 -232 -180 -295 -199
-71 -22 -101 -25 -101 -9 0 5 -5 7 -10 4 -6 -4 -8 -11 -5 -16 4 -5 -4 -10 -17
-10 -13 -1 -39 -3 -58 -4 -19 -2 -29 -1 -22 2 6 2 12 13 12 23 0 10 5 22 10
25 6 4 8 10 5 15 -3 5 -1 20 5 32 10 21 10 21 -9 -2 -11 -14 -28 -44 -37 -67
-9 -24 -20 -43 -25 -43 -4 0 -15 -3 -25 -7 -15 -5 -16 -2 -11 27 20 96 138
311 234 424 76 90 215 197 328 251 232 112 366 141 608 132 84 -4 168 -9 187
-11 19 -3 8 1 -25 10 -98 25 -327 22 -453 -5 -313 -66 -564 -227 -729 -465
-60 -86 -144 -253 -162 -323 -9 -32 -17 -43 -31 -43 -25 0 -26 -1 10 108 37
113 61 163 140 281 107 160 247 281 429 371 251 125 510 166 771 125z m-393
-221 c-3 -3 -12 -4 -19 -1 -8 3 -5 6 6 6 11 1 17 -2 13 -5z m-94 -330 c41 -46
129 -244 117 -264 -9 -14 -55 61 -114 185 -67 141 -68 151 -3 79z m908 29 c13
-16 12 -17 -3 -4 -17 13 -22 21 -14 21 2 0 10 -8 17 -17z m-960 -52 c11 -36
10 -244 -1 -254 -3 -3 -68 -10 -145 -16 -77 -6 -164 -14 -194 -18 -51 -6 -52
-5 -40 13 25 38 342 314 361 314 4 0 12 -17 19 -39z m529 -123 c20 -37 27 -59
20 -63 -26 -16 -45 19 -87 155 -9 27 36 -34 67 -92z"/>
<path d="M2800 3730 c34 -11 60 -11 35 0 -11 5 -29 8 -40 8 -16 0 -15 -2 5 -8z"/>
<path d="M2890 3705 c46 -18 64 -17 25 0 -16 8 -37 14 -45 14 -8 0 1 -7 20
-14z"/>
<path d="M3000 3666 c0 -2 7 -7 16 -10 8 -3 12 -2 9 4 -6 10 -25 14 -25 6z"/>
<path d="M3255 3510 c10 -11 20 -20 23 -20 3 0 -3 9 -13 20 -10 11 -20 20 -23
20 -3 0 3 -9 13 -20z"/>
<path d="M2772 3023 c9 -10 23 -32 32 -50 l16 -32 -33 11 c-17 6 -38 15 -44
21 -9 6 -18 6 -26 -2 -8 -6 -31 -15 -53 -20 -38 -9 -38 -9 21 -9 33 -1 76 -6
95 -11 44 -14 136 -14 104 -1 -12 5 -39 29 -60 54 -21 25 -44 48 -53 51 -13 5
-13 3 1 -12z"/>
<path d="M3108 2983 c7 -3 16 -2 19 1 4 3 -2 6 -13 5 -11 0 -14 -3 -6 -6z"/>
<path d="M2135 2860 c-205 -4 -110 -6 395 -10 366 -3 667 -4 669 -2 2 1 2 4 0
7 -7 7 -764 11 -1064 5z"/>
<path d="M2140 2590 l0 -190 30 0 30 0 0 64 c0 45 5 67 15 76 19 16 16 19 50
-58 16 -35 36 -67 46 -72 22 -13 59 -13 59 -1 0 5 -23 57 -50 116 l-50 108 40
64 c22 35 40 66 40 69 0 2 -13 4 -29 4 -25 0 -35 -10 -73 -67 l-43 -68 -3 73
-3 72 -29 0 -30 0 0 -190z"/>
<path d="M2450 2590 l0 -190 30 0 30 0 0 80 c0 79 0 80 25 80 23 0 25 -3 25
-49 0 -81 9 -111 35 -111 21 0 22 4 29 148 4 82 4 167 0 190 -6 36 -10 42 -30
42 -22 0 -24 -4 -26 -57 0 -32 -2 -62 -3 -68 -2 -5 -3 -18 -4 -27 -1 -12 -9
-18 -26 -18 -25 0 -25 1 -25 85 l0 85 -30 0 -30 0 0 -190z"/>
<path d="M2764 2767 c-2 -7 -3 -91 -2 -187 l3 -175 27 -3 27 -3 3 83 c3 81 4
83 28 83 24 0 25 -2 28 -82 3 -81 3 -83 27 -83 24 0 25 3 25 63 0 34 3 119 7
190 l6 127 -31 0 -31 0 -3 -77 c-3 -76 -4 -78 -28 -78 -24 0 -25 2 -28 78 -3
75 -4 77 -28 77 -13 0 -27 -6 -30 -13z"/>
<path d="M2952 2590 l-2 -190 35 0 35 0 0 190 0 190 -32 0 -33 0 -3 -190z"/>
<path d="M3080 2627 c0 -144 2 -156 23 -188 38 -57 103 -64 147 -17 18 20 20
35 20 185 l0 163 -25 0 -24 0 -3 -152 -3 -153 -25 0 -25 0 -5 155 -5 155 -37
3 -38 3 0 -154z"/>
<path d="M1690 2574 l0 -195 33 3 32 3 3 193 2 192 -35 0 -35 0 0 -196z"/>
<path d="M1889 2741 c-29 -29 -29 -30 -29 -156 0 -120 1 -127 25 -150 35 -36
85 -34 124 6 21 20 31 40 31 60 0 27 -3 30 -27 27 -20 -2 -29 -9 -31 -26 -4
-28 -27 -39 -47 -22 -11 9 -15 36 -15 109 0 53 4 102 9 109 13 21 46 10 49
-16 3 -19 9 -23 35 -20 27 3 32 7 29 28 -1 14 -16 37 -32 53 -41 37 -83 36
-121 -2z"/>
<path d="M1440 2559 l0 -201 68 7 c106 10 124 15 118 32 -3 8 -6 21 -6 30 0
12 -9 14 -50 8 l-50 -7 0 166 0 166 -40 0 -40 0 0 -201z"/>
<path d="M3348 2573 c-3 -104 -3 -190 -1 -192 1 -2 38 -6 82 -9 75 -4 78 -3
84 19 9 33 1 39 -54 39 l-49 0 0 165 0 165 -29 0 -29 0 -4 -187z"/>
<path d="M1237 2729 c-38 -22 -47 -62 -47 -202 0 -119 2 -137 20 -160 27 -34
63 -41 105 -22 33 16 72 76 61 94 -10 15 -58 -1 -64 -21 -3 -13 -12 -18 -26
-16 -20 3 -21 9 -24 135 -2 126 -2 132 18 138 26 8 28 6 33 -26 3 -18 10 -24
28 -24 20 0 24 5 27 37 4 49 -24 78 -75 78 -21 0 -46 -5 -56 -11z"/>
<path d="M3572 2558 l3 -183 86 -3 c85 -3 88 -2 109 25 30 38 24 112 -13 151
l-26 27 25 28 c29 34 30 56 4 90 -24 30 -75 47 -143 47 l-47 0 2 -182z m116
75 c3 -30 1 -33 -22 -33 -23 0 -26 4 -26 36 0 31 3 35 23 32 17 -2 23 -11 25
-35z m17 -143 c10 -47 -2 -72 -33 -68 -25 3 -27 7 -30 51 -3 46 -3 47 27 47
25 0 30 -5 36 -30z"/>
<path d="M2085 2311 c-54 -4 102 -9 385 -11 261 -3 477 -4 479 -2 2 1 1 5 -2
9 -10 9 -747 12 -862 4z"/>
<path d="M1705 2269 c-161 -15 -370 -41 -376 -48 -3 -3 0 -26 8 -51 13 -45 14
-45 50 -42 37 3 38 3 56 -46 9 -28 28 -57 41 -66 l25 -16 -15 45 c-9 24 -22
49 -30 56 -16 13 -19 39 -4 39 5 0 31 -43 56 -96 25 -53 47 -94 50 -91 2 2 -7
28 -21 58 -26 57 -31 84 -15 94 5 3 7 12 4 20 -8 21 23 32 111 40 72 6 87 4
150 -20 116 -44 316 -158 527 -300 77 -52 147 -95 156 -95 20 0 73 31 227 132
151 98 225 139 238 131 5 -3 7 -2 4 4 -3 5 11 17 31 27 29 13 33 13 18 1 -11
-8 -23 -15 -28 -15 -4 0 -8 -5 -8 -11 0 -5 5 -7 12 -3 8 5 9 2 5 -10 -8 -19
-5 -18 58 24 212 142 242 153 355 129 43 -9 50 -14 50 -34 0 -47 -58 -151
-161 -290 -104 -140 -193 -220 -351 -313 -122 -72 -208 -111 -208 -95 0 3 -6
1 -12 -5 -22 -17 -132 -50 -165 -49 -44 1 -42 13 5 27 57 19 173 82 179 98 5
10 8 11 13 1 5 -6 14 -10 21 -7 8 3 16 5 19 5 3 -1 15 8 28 18 12 11 32 22 45
25 26 7 37 50 13 50 -27 0 -125 -53 -120 -64 3 -6 -2 -2 -10 8 -14 18 -21 15
-17 -7 2 -10 -110 -62 -126 -59 -6 1 -14 -2 -18 -8 -3 -6 -46 -10 -99 -10 -75
0 -98 4 -117 18 -13 10 -32 21 -41 25 -12 4 -18 17 -18 37 0 18 -4 29 -10 25
-18 -11 -11 -81 10 -100 11 -10 17 -21 15 -26 -3 -4 0 -9 7 -12 7 -2 4 -2 -7
0 -11 2 -31 5 -45 7 -94 12 -295 116 -387 200 -74 67 -243 293 -243 325 0 6
-4 11 -8 11 -4 0 -19 21 -32 48 -16 31 -25 41 -27 30 -4 -17 89 -166 183 -293
77 -104 193 -214 269 -253 22 -12 36 -21 30 -21 -5 -1 -27 9 -47 22 -135 80
-178 109 -178 117 0 6 -4 9 -9 8 -5 -2 -33 22 -62 53 -30 30 -46 46 -36 34 9
-12 14 -25 10 -30 -5 -4 -2 -5 6 0 10 6 12 4 6 -4 -5 -9 -15 -5 -37 16 -26 25
-88 108 -88 118 0 16 -69 114 -75 106 -3 -6 0 -11 7 -11 10 0 10 -2 0 -8 -10
-7 -6 -20 15 -58 15 -27 30 -51 33 -54 3 -3 30 -34 59 -70 74 -91 122 -134
231 -209 197 -134 329 -174 570 -175 325 -1 560 92 770 303 122 123 235 290
232 344 0 9 3 15 9 12 5 -4 9 1 9 10 0 9 -5 13 -11 9 -8 -4 -8 0 0 15 6 11 20
25 31 31 11 6 20 17 20 24 0 27 41 66 70 66 16 0 31 -4 34 -8 9 -15 -34 -186
-63 -249 -17 -35 -28 -63 -26 -63 11 0 57 105 75 172 20 74 52 230 47 234 -5
5 -279 34 -425 45 l-152 11 -233 -116 c-127 -64 -261 -131 -297 -150 l-64 -34
-202 102 c-418 210 -393 202 -579 185z m1783 -184 c-13 -26 -25 -40 -29 -34
-4 7 -12 -6 -19 -27 -7 -22 -16 -41 -19 -44 -3 -3 -19 -30 -35 -60 -75 -142
-206 -293 -328 -378 -25 -17 -50 -32 -54 -32 -9 0 44 50 54 50 15 1 123 110
181 183 61 77 160 234 196 310 11 23 21 34 25 27 4 -7 12 1 20 19 7 17 16 31
21 31 5 0 -1 -20 -13 -45z"/>
<path d="M2397 2196 c3 -13 -3 -29 -16 -40 -28 -25 -26 -36 4 -36 14 0 25 5
25 10 0 6 -5 10 -11 10 -5 0 -3 10 5 22 20 28 20 44 3 51 -10 4 -13 -1 -10
-17z"/>
<path d="M2462 2178 c-7 -21 -10 -43 -7 -49 8 -13 32 -11 41 3 5 7 3 8 -6 3
-10 -6 -12 -2 -8 16 3 13 9 31 12 40 4 10 2 18 -6 22 -9 3 -18 -9 -26 -35z"/>
<path d="M2572 2170 c-3 -58 13 -67 22 -12 8 53 8 62 -6 62 -8 0 -14 -18 -16
-50z"/>
<path d="M1830 2101 c0 -14 49 -43 61 -36 5 4 26 -3 45 -14 19 -12 33 -17 30
-12 -11 17 -96 62 -106 56 -6 -3 -10 -1 -10 4 0 6 -4 11 -10 11 -5 0 -10 -4
-10 -9z"/>
<path d="M1803 1844 c-16 -26 -16 -27 6 -45 30 -25 66 -24 91 1 16 16 18 25
11 39 -22 40 -83 42 -108 5z"/>
<path d="M3053 1853 c-25 -17 -30 -42 -11 -61 19 -19 54 -14 84 11 l27 24 -21
21 c-26 26 -48 27 -79 5z"/>
<path d="M3505 1784 c-9 -15 -12 -23 -6 -20 11 7 35 46 28 46 -3 0 -12 -12
-22 -26z"/>
<path d="M1500 1721 c24 -34 48 -65 54 -68 5 -4 -10 22 -34 56 -24 34 -48 65
-54 68 -5 4 10 -22 34 -56z"/>
<path d="M1417 1733 c22 -47 22 -48 28 -41 6 5 -33 78 -41 78 -2 0 4 -17 13
-37z"/>
<path d="M1676 1755 c4 -8 11 -15 16 -15 6 0 5 6 -2 15 -7 8 -14 15 -16 15 -2
0 -1 -7 2 -15z"/>
<path d="M1935 1710 c-41 -45 27 -80 78 -40 29 23 35 46 15 48 -7 1 -27 4 -43
8 -23 4 -35 1 -50 -16z"/>
<path d="M2933 1709 c-37 -24 -40 -31 -17 -53 19 -20 27 -20 67 1 47 24 60 45
40 61 -24 17 -53 15 -90 -9z"/>
<path d="M3453 1708 c-15 -20 -25 -38 -20 -38 3 0 12 11 21 25 17 26 16 35 -1
13z"/>
<path d="M3394 1628 l-29 -33 33 29 c17 17 32 31 32 33 0 8 -8 1 -36 -29z"/>
<path d="M1585 1610 c36 -42 180 -174 215 -196 14 -9 5 1 -20 22 -25 21 -85
77 -135 124 -49 47 -76 69 -60 50z"/>
<path d="M2107 1600 c-4 -16 2 -24 26 -36 18 -9 41 -25 53 -35 11 -11 36 -24
54 -29 31 -9 32 -8 16 9 -9 10 -13 21 -9 26 5 4 2 5 -5 1 -13 -7 -57 19 -103
61 -26 24 -26 24 -32 3z"/>
<path d="M2467 1544 c-20 -11 -27 -22 -25 -37 3 -19 9 -22 56 -22 51 -1 52 0
52 27 0 21 -6 31 -26 38 -30 12 -23 13 -57 -6z"/>
<path d="M3294 1528 l-29 -33 33 29 c30 28 37 36 29 36 -2 0 -16 -15 -33 -32z"/>
<path d="M3208 1457 c-20 -18 -64 -48 -97 -67 -81 -46 -108 -67 -51 -39 57 28
149 90 174 118 27 30 17 25 -26 -12z"/>
<path d="M1867 1369 c7 -7 15 -10 18 -7 3 3 -2 9 -12 12 -14 6 -15 5 -6 -5z"/>
<path d="M1920 1340 c8 -5 20 -10 25 -10 6 0 3 5 -5 10 -8 5 -19 10 -25 10 -5
0 -3 -5 5 -10z"/>
<path d="M2935 1299 c-105 -45 -115 -50 -85 -43 47 11 185 75 160 74 -3 0 -36
-14 -75 -31z"/>
<path d="M2010 1297 c98 -57 320 -107 477 -107 88 0 259 27 313 49 39 15 19
13 -72 -9 -191 -47 -424 -34 -613 35 -131 47 -133 48 -105 32z"/>
</g>
</svg>
